<svg xmlns="http://www.w3.org/2000/svg" fill="currentColor" viewBox="0 0 16 16">
  <path d="M10.6057 4.13483L10.6025 3.21797C10.6014 2.92599 10.745 2.65259 10.9873 2.49072L12.8847 1.21775C13.0998 1.07235 13.3533 0.995033 13.6098 0.994112L13.6507 0.993965C14.3738 0.991369 14.9626 1.57595 14.9652 2.29907C14.9678 3.02219 14.3832 3.61098 13.6601 3.61358L13.5864 3.61384L8.90167 8.33238C9.45679 8.65785 9.92042 8.58523 10.2201 8.4559C10.4517 8.35684 10.7464 8.35578 10.9244 8.53524C11.1025 8.7147 11.1035 9.00668 10.9268 9.18468L10.3395 9.78167C10.1084 10.0172 9.81418 10.1547 9.51997 10.2949C9.22031 10.4351 8.92064 10.5754 8.68139 10.8218C8.00984 11.5065 7.60448 12.6103 7.40229 13.2987C7.28639 13.6975 7.09127 14.0748 6.80034 14.3678C5.98469 15.2003 4.65578 15.2051 3.83144 14.3785L1.64325 12.1842C0.821647 11.3576 0.816827 10.0151 1.63248 9.18258C1.9234 8.88683 2.29379 8.6863 2.68631 8.56755C3.36503 8.35772 4.45506 7.94176 5.12661 7.25715C5.37947 6.99973 5.53113 6.67992 5.6828 6.36283C5.83448 6.04575 5.98343 5.7314 6.23357 5.47673L7.04651 4.64971C7.22323 4.46898 7.51248 4.46794 7.6905 4.6474C7.86852 4.82686 7.8723 5.12156 7.73937 5.33761C7.50337 5.7314 7.25744 6.39538 7.65839 7.10343L10.6057 4.13483ZM6.49984 8.19638C6.24242 7.9408 5.82764 7.94229 5.57479 8.1997C5.32194 8.45712 5.3207 8.8719 5.57811 9.12476L6.89262 10.4299C7.15005 10.6854 7.56482 10.684 7.81767 10.4265C8.07053 10.1691 8.07177 9.75434 7.81435 9.50149L6.49984 8.19638ZM4.7597 9.94906C4.50228 9.69348 4.08751 9.69497 3.83465 9.95238C3.5818 10.2098 3.58056 10.6246 3.83797 10.8774L5.15248 12.1825C5.40991 12.4381 5.82468 12.4366 6.07753 12.1792C6.33039 11.9218 6.33163 11.507 6.07421 11.2542L4.7597 9.94906Z"/>
</svg>