<svg viewBox="0 0 16 16" fill="currentColor" xmlns="http://www.w3.org/2000/svg">
<path d="M4.9375 3.38333V3.6H11.0625V3.38333C11.0625 2.78479 10.573 2.3 9.96875 2.3H6.03125C5.42695 2.3 4.9375 2.78479 4.9375 3.38333ZM3.625 3.6V3.38333C3.625 2.06708 4.70234 1 6.03125 1H9.96875C11.2977 1 12.375 2.06708 12.375 3.38333V3.6H13.25C14.2152 3.6 15 4.37729 15 5.33333V12.2667C15 13.2227 14.2152 14 13.25 14H2.75C1.78477 14 1 13.2227 1 12.2667V5.33333C1 4.37729 1.78477 3.6 2.75 3.6H3.625ZM4.28125 6.2C4.28125 5.83979 3.98867 5.55 3.625 5.55C3.26133 5.55 2.96875 5.83979 2.96875 6.2C2.96875 6.56021 3.26133 6.85 3.625 6.85C3.98867 6.85 4.28125 6.56021 4.28125 6.2ZM6.25 6.85C6.61367 6.85 6.90625 6.56021 6.90625 6.2C6.90625 5.83979 6.61367 5.55 6.25 5.55C5.88633 5.55 5.59375 5.83979 5.59375 6.2C5.59375 6.56021 5.88633 6.85 6.25 6.85ZM10.4062 6.2C10.4062 5.83979 10.1137 5.55 9.75 5.55C9.38633 5.55 9.09375 5.83979 9.09375 6.2C9.09375 6.56021 9.38633 6.85 9.75 6.85C10.1137 6.85 10.4062 6.56021 10.4062 6.2ZM12.375 6.85C12.7387 6.85 13.0312 6.56021 13.0312 6.2C13.0312 5.83979 12.7387 5.55 12.375 5.55C12.0113 5.55 11.7188 5.83979 11.7188 6.2C11.7188 6.56021 12.0113 6.85 12.375 6.85ZM4.0625 9.23333H11.9375V10.9667H4.0625V9.23333ZM3.625 7.93333C3.14102 7.93333 2.75 8.32063 2.75 8.8V11.4C2.75 11.8794 3.14102 12.2667 3.625 12.2667H12.375C12.859 12.2667 13.25 11.8794 13.25 11.4V8.8C13.25 8.32063 12.859 7.93333 12.375 7.93333H3.625Z" fill="currentColor"/>
</svg>